<?xml version="1.0" encoding="utf-8"?>
<!-- Generator: Adobe Illustrator 27.0.0, SVG Export Plug-In . SVG Version: 6.00 Build 0)  -->
<svg version="1.1" id="Layer_1" xmlns="http://www.w3.org/2000/svg" xmlns:xlink="http://www.w3.org/1999/xlink" x="0px" y="0px"
	 viewBox="0 0 172.3 41.1" style="enable-background:new 0 0 172.3 41.1;" xml:space="preserve">
<style type="text/css">
	.st0{clip-path:url(#SVGID_00000083072798536546088110000014087071226211488431_);}
	.st1{fill:#FFD626;}
</style>
<g>
	<g>
		<defs>
			<rect id="SVGID_1_" x="6.6" y="8" width="159" height="25"/>
		</defs>
		<clipPath id="SVGID_00000172441404661771030290000008932490101566328235_">
			<use xlink:href="#SVGID_1_"  style="overflow:visible;"/>
		</clipPath>
		<g style="clip-path:url(#SVGID_00000172441404661771030290000008932490101566328235_);">
			<path class="st1" d="M30.7,8.9h-6.5c-1.6,0-2.9,1.3-2.9,2.9l0,0v0.4c0,1.4-1,2.5-2.3,2.7h-0.8H18h-6.3c-1.6,0-2.9,1.3-2.9,2.9
				s1.3,2.9,2.9,2.9h6.5c1.6,0,2.9-1.3,2.9-2.9l0,0v-0.5l0,0c0-1.5,1.2-2.7,2.7-2.7h0.4h0.2h6.4c1.6,0,2.9-1.3,2.9-2.9
				S32.3,8.9,30.7,8.9z"/>
			<path class="st1" d="M28.5,20.5H22c-1.6,0-2.9,1.3-2.9,2.9l0,0v0.4c0,1.4-1,2.5-2.3,2.7H16h-0.2H9.5c-1.6,0-2.9,1.3-2.9,2.9
				s1.3,2.9,2.9,2.9H16c1.6,0,2.9-1.3,2.9-2.9l0,0V29l0,0c0-1.5,1.2-2.7,2.7-2.7H22h0.2h6.4c1.6,0,2.9-1.3,2.9-2.9
				S30.1,20.5,28.5,20.5z"/>
			<path d="M61.6,30.8v-0.6c0-1.2,1-2.2,2.2-2.2h10.6c1.2,0,2.2-1,2.2-2.2v-0.6c0-1.2-1-2.2-2.2-2.2H63.7c-1.2,0-2.2-1-2.2-2.2v-5.6
				c0.1-1.2,1-2.2,2.2-2.2h0.6c1.2,0,2.2-1,2.2-2.2v-0.6c0-1.2,1-2.2,2.2-2.2h10.6c1.2,0,2.2,1,2.2,2.2v0.6c0,1.2-1,2.2-2.2,2.2
				H68.7c-1.2,0-2.2,1-2.2,2.2v0.6c0,1.2,1,2.2,2.2,2.2h10.6c1.2,0,2.2,1,2.2,2.2v5.6c0,1.2-1,2.2-2.2,2.2h-0.7
				c-1.2,0-2.2,1-2.2,2.2v0.6c0,1.2-1,2.2-2.2,2.2H63.7C62.5,33,61.6,32,61.6,30.8z"/>
			<path d="M145.7,30.8v-0.6c0-1.2,1-2.2,2.2-2.2h10.6c1.2,0,2.2-1,2.2-2.2v-0.6c0-1.2-1-2.2-2.2-2.2h-10.6c-1.2,0-2.2-1-2.2-2.2
				v-5.6c0-1.2,1-2.2,2.2-2.2h0.6c1.2,0,2.2-1,2.2-2.2v-0.6c0-1.2,1-2.2,2.2-2.2h10.6c1.2,0,2.2,1,2.2,2.2v0.6c0,1.2-1,2.2-2.2,2.2
				h-10.6c-1.2,0-2.2,1-2.2,2.2v0.6c0,1.2,1,2.2,2.2,2.2h10.6c1.2,0,2.2,1,2.2,2.2v5.6c0,1.2-1,2.2-2.2,2.2h-0.6
				c-1.2,0-2.2,1-2.2,2.2v0.6c0,1.2-1,2.2-2.2,2.2h-10.6C146.7,33,145.7,32,145.7,30.8z"/>
			<path d="M54,25.8c0,1.2-1,2.2-2.2,2.2H45c-1.2,0-2.2-1-2.2-2.2V15.2c0-1.2,1-2.2,2.2-2.2h6.8c1.2,0,2.2,1,2.2,2.2V25.8z M55.3,8
				h-4.1h-5.7c-1.2,0-2.2,1-2.2,2.2v0.6c0,1.2-1,2.2-2.2,2.2h-0.6c-1.2,0-2.2,1-2.2,2.2v9.3v1.3v3.9c0,1.8,1.4,3.2,3.2,3.2h4.1h5.7
				c1.2,0,2.2-1,2.2-2.2v-0.6c0-1.2,1-2.2,2.2-2.2h0.6c1.2,0,2.2-1,2.2-2.2v-9.2v-1.3v-3.9C58.5,9.5,57.1,8,55.3,8z"/>
			<path d="M138.2,25.8c0,1.2-1,2.2-2.2,2.2h-6.8c-1.2,0-2.2-1-2.2-2.2V15.2c0-1.2,1-2.2,2.2-2.2h6.8c1.2,0,2.2,1,2.2,2.2V25.8z
				 M139.5,8h-4.1h-5.7c-1.2,0-2.2,1-2.2,2.2v0.6c0,1.2-1,2.2-2.2,2.2h-0.6c-1.2,0-2.2,1-2.2,2.2v9.3v1.3v3.9c0,1.8,1.4,3.2,3.2,3.2
				h4.1h5.7c1.2,0,2.2-1,2.2-2.2v-0.6c0-1.2,1-2.2,2.2-2.2h0.6c1.2,0,2.2-1,2.2-2.2v-9.2v-1.3v-3.9C142.7,9.5,141.3,8,139.5,8z"/>
			<path d="M117.1,13h-0.6c-1.2,0-2.2-1-2.2-2.2v-0.6c0-1.2-1-2.2-2.2-2.2h-5.6c-1.1,0-2.1,0.9-2.2,2c0,0.1,0,0.2,0,0.3v0.6
				c0,0.1,0,0.2,0,0.3c-0.1,1-1,1.8-2.1,1.8h-0.6c-1.1,0-2-0.8-2.2-1.9c0-0.1,0-0.2,0-0.3v-0.5c0-0.1,0-0.2,0-0.3
				c-0.1-1.1-1-2-2.2-2H86.6c-1.2,0-2.2,1-2.2,2.2v20.6c0,1.2,1,2.2,2.2,2.2l0,0h0.6l0,0c1.2,0,2.2-1,2.2-2.2V15.2
				c0-1.2,1-2.2,2.2-2.2h5.6c0.9,0,1.8,0.6,2.1,1.5v0.1v0.1v0.1v0.1l0,0c0,0.1,0,0.1,0,0.2v15.6c0,0.6,0.3,1.2,0.7,1.6l0,0l0.1,0.1
				l0,0l0.1,0.1l0,0l0.1,0.1c0,0,0,0,0.1,0c0,0,0.1,0,0.1,0.1h0.1h0.1h0.1h0.1h0.1h0.1c0.1,0,0.1,0,0.2,0l0,0h0.6l0,0
				c0.1,0,0.1,0,0.2,0h0.1h0.1h0.1h0.1h0.1h0.1c0,0,0.1,0,0.1-0.1c0,0,0,0,0.1,0c0,0,0.1,0,0.1-0.1l0,0l0.1-0.1l0,0l0.1-0.1l0,0
				c0.4-0.4,0.7-1,0.7-1.6V15.2c0-0.1,0-0.1,0-0.2l0,0v-0.1v-0.1v-0.1v-0.1c0.9-0.9,1.7-1.6,2.6-1.6h5.6c1.2,0,2.2,1,2.2,2.2v15.6
				c0,1.2,1,2.2,2.2,2.2l0,0h0.6l0,0c1.2,0,2.2-1,2.2-2.2V15.2C119.3,14,118.3,13,117.1,13z"/>
		</g>
	</g>
</g>
</svg>
