<?xml version="1.0" encoding="UTF-8" standalone="no"?>
<!DOCTYPE svg PUBLIC "-//W3C//DTD SVG 1.1//EN" "http://www.w3.org/Graphics/SVG/1.1/DTD/svg11.dtd">
<svg width="100%" height="100%" viewBox="0 0 400 400" version="1.1" xmlns="http://www.w3.org/2000/svg" xmlns:xlink="http://www.w3.org/1999/xlink" xml:space="preserve" xmlns:serif="http://www.serif.com/" style="fill-rule:evenodd;clip-rule:evenodd;">
    <g>
        <clipPath id="_clip1">
            <rect x="0" y="0" width="400" height="400"/>
        </clipPath>
        <g clip-path="url(#_clip1)">
            <rect x="7.944" y="7.944" width="384.435" height="384.431" style="fill:none;stroke:white;stroke-width:15.89px;"/>
            <g>
                <path d="M7.944,308.41C12.619,306.329 17.38,304.255 22.227,302.193C32.979,297.618 44.156,293.097 55.761,288.665C66.013,284.749 76.6,280.903 87.522,277.149C98.192,273.481 109.183,269.902 120.497,266.434C129.356,263.718 138.412,261.069 147.667,258.5C156.224,256.124 164.951,253.815 173.848,251.581C183.093,249.261 192.523,247.021 202.137,244.873C210.121,243.089 218.233,241.367 226.472,239.713C233.844,238.234 241.318,236.809 248.894,235.443C257.191,233.947 265.611,232.52 274.154,231.169C282.881,229.789 291.737,228.487 300.723,227.269C305.509,226.62 310.332,225.994 315.192,225.394C320.386,224.752 325.621,224.138 330.899,223.554C335.491,223.045 340.116,222.558 344.773,222.094C349.663,221.607 354.588,221.144 359.548,220.708C364.205,220.298 368.892,219.911 373.611,219.547C374.556,219.474 375.502,219.402 376.449,219.331C378.465,219.18 380.487,219.033 382.515,218.891L392.379,178.469C389.322,178.313 386.235,178.156 383.117,177.999C376.961,177.69 370.686,177.384 364.292,177.092C358.359,176.822 352.323,176.564 346.184,176.33C340.184,176.1 334.085,175.893 327.886,175.717C322.614,175.568 317.27,175.441 311.853,175.343C303.217,175.186 294.397,175.102 285.389,175.114C278.007,175.123 270.499,175.197 262.865,175.349C255.946,175.486 248.923,175.687 241.795,175.961C234.838,176.229 227.78,176.566 220.623,176.982C213.348,177.404 205.97,177.908 198.488,178.503C194.67,178.806 190.825,179.133 186.952,179.485C184.178,180.002 181.425,180.524 178.694,181.053C171.873,182.373 165.182,183.729 158.619,185.125C149.894,186.981 141.392,188.905 133.107,190.905C125.129,192.831 117.35,194.826 109.765,196.895C100.759,199.352 92.025,201.914 83.551,204.587C72.9,207.948 62.66,211.487 52.807,215.219C43.386,218.788 34.319,222.533 25.584,226.47C19.548,229.191 13.67,232.002 7.944,234.91L7.944,248.922C13.705,241.252 19.583,233.758 25.584,226.47C43.795,204.353 63.135,184.132 83.738,166.637C86.828,164.013 89.947,161.451 93.094,158.952C100.43,153.129 107.924,147.653 115.58,142.562L322.066,7.944C322.112,9.37 322.154,10.814 322.194,12.274C322.344,17.745 322.454,23.449 322.512,29.359C322.571,35.411 322.577,41.679 322.515,48.135C322.371,63.118 321.865,79.112 320.833,95.76C320.045,108.48 318.95,121.582 317.476,134.908C316.004,148.216 314.154,161.747 311.853,175.343C309.615,188.57 306.95,201.859 303.792,215.064C302.816,219.142 301.794,223.211 300.723,227.269C299.125,233.321 297.417,239.346 295.595,245.33C294.007,250.543 292.331,255.726 290.563,260.867C288.662,266.394 286.655,271.874 284.535,277.295C281.631,284.725 278.517,292.044 275.179,299.222C272.937,304.042 270.594,308.799 268.146,313.483C263.627,322.131 258.749,330.53 253.487,338.623C247.02,348.57 239.971,358.055 232.294,366.971C230.141,369.472 227.938,371.927 225.684,374.336C223.984,376.153 222.256,377.944 220.498,379.706C220.498,379.706 217.374,381.933 211.323,385.897C208.556,387.709 205.178,389.884 201.207,392.375L187.37,392.375C190.249,387.179 193.147,381.742 196.05,376.057C200.403,367.534 204.767,358.455 209.099,348.804C212.535,341.149 215.95,333.135 219.322,324.752C222.427,317.031 225.496,308.999 228.51,300.648C231.352,292.775 234.146,284.618 236.877,276.173C238.855,270.055 240.8,263.785 242.707,257.361C244.819,250.245 246.884,242.939 248.894,235.443C250.303,230.189 251.685,224.842 253.037,219.4C256.428,205.75 259.632,191.503 262.609,176.643C262.695,176.211 262.78,175.779 262.865,175.349C265.787,160.581 268.321,146.851 270.517,134.064C272.784,120.858 274.689,108.656 276.285,97.352C278.577,81.122 280.231,66.742 281.404,53.896C281.901,48.456 282.311,43.292 282.647,38.379C283.002,33.189 283.273,28.279 283.476,23.621C283.718,18.051 283.861,12.842 283.928,7.944L299.752,7.944C299.695,11.318 299.627,14.665 299.547,17.987C299.418,23.329 299.26,28.604 299.073,33.812C298.866,39.556 298.625,45.219 298.35,50.801C297.58,66.456 296.549,81.476 295.296,95.874C294.142,109.142 292.799,121.883 291.297,134.108C289.531,148.483 287.545,162.145 285.389,175.114C282.903,190.064 280.191,204.093 277.327,217.228C276.288,221.992 275.229,226.639 274.154,231.169C272.481,238.217 270.769,244.984 269.03,251.475C267.479,257.264 265.908,262.833 264.325,268.187C262.191,275.406 260.036,282.233 257.884,288.677C255.172,296.799 252.464,304.313 249.806,311.237C247.172,318.102 244.587,324.387 242.098,330.111C237.673,340.287 233.55,348.687 229.986,355.41C222.355,369.802 217.284,376.51 217.284,376.51C215.536,379.66 213.544,382.789 211.323,385.897C209.772,388.067 208.11,390.227 206.341,392.375L209.326,392.375C214.851,386.337 220.305,380.316 225.684,374.336C227.9,371.873 230.103,369.418 232.294,366.971C246.193,351.445 259.579,336.278 272.397,321.93C274.705,319.347 276.994,316.791 279.265,314.264C306.882,283.524 331.731,257.107 353.25,239.835C365.344,230.06 378.525,222.251 392.379,215.877L392.379,211.662C387.087,214.404 381.783,216.951 376.449,219.331C374.966,219.993 373.48,220.642 371.992,221.279C366.182,223.765 360.331,226.064 354.416,228.214C349.268,230.085 344.072,231.843 338.811,233.513C334.276,234.953 329.694,236.327 325.054,237.651C319.997,239.094 314.872,240.478 309.667,241.823C305.042,243.018 300.355,244.182 295.595,245.33C286.993,247.404 278.155,249.424 269.03,251.475C260.52,253.388 251.759,255.327 242.707,257.361C235.18,259.053 227.451,260.81 219.496,262.672C211.572,264.527 203.423,266.486 195.027,268.589C185.341,271.014 175.325,273.629 164.942,276.494C155.843,279.006 146.463,281.709 136.776,284.644C127.442,287.472 117.824,290.516 107.899,293.811C96.647,297.547 85.002,301.606 72.931,306.041C62.033,310.044 50.788,314.354 39.173,319.008C38.592,319.241 38.01,319.474 37.427,319.709C27.353,323.392 17.523,327.278 7.944,331.328L7.944,327.158C12.677,318.791 17.436,310.462 22.227,302.193C29.43,289.762 36.707,277.465 44.082,265.376C56.9,244.362 70.015,223.972 83.551,204.587C96.14,186.558 109.093,169.398 122.512,153.412C127.026,148.035 131.592,142.791 136.215,137.691C150.965,121.419 166.29,106.617 182.316,93.664C184.443,91.944 186.583,90.257 188.736,88.603C190.177,87.495 191.615,86.405 193.049,85.334C197.956,81.673 202.826,78.231 207.655,74.995C210.671,72.974 213.672,71.033 216.654,69.17C219.811,67.199 222.948,65.315 226.063,63.515C229.548,61.5 233.007,59.591 236.436,57.782C241.266,55.233 246.038,52.883 250.747,50.717C254.796,48.855 258.797,47.129 262.747,45.531C269.54,42.783 276.18,40.414 282.647,38.379C288.257,36.614 293.737,35.101 299.073,33.812C307.239,31.838 315.069,30.388 322.512,29.359C328.643,28.511 334.512,27.949 340.091,27.616C347.964,27.145 355.26,27.13 361.903,27.41C369.854,27.745 376.869,28.502 382.816,29.406C380.907,16.484 378.584,9.442 378.584,9.442C378.584,9.442 372.08,8.367 360.902,8.371C361.302,13.95 361.661,20.333 361.903,27.41C362.121,33.794 362.245,40.742 362.218,48.175C362.165,62.984 361.514,79.715 359.826,97.73C358.64,110.378 356.944,123.66 354.583,137.354C352.394,150.05 349.635,163.101 346.184,176.33C343.064,188.288 339.378,200.392 335.037,212.511C333.719,216.192 332.34,219.874 330.899,223.554C329.055,228.259 327.109,232.961 325.054,237.651C322.714,242.994 320.233,248.322 317.604,253.624C315.767,257.33 313.858,261.022 311.874,264.699C307.93,272.005 303.689,279.247 299.132,286.394C295.501,288.569 291.328,290.894 286.685,293.348C283.116,295.234 279.27,297.195 275.179,299.222C267.51,303.021 258.981,307.048 249.806,311.237C240.262,315.594 230.02,320.124 219.322,324.752C210.124,328.73 200.589,332.78 190.87,336.852C182.418,340.394 173.827,343.953 165.199,347.496C152.442,352.735 139.605,357.94 127.013,363.008C115.688,367.565 104.562,372.012 93.873,376.271C82.026,380.992 70.714,385.484 60.264,389.642C59.563,389.918 58.865,390.193 58.172,390.466C56.537,391.111 54.925,391.747 53.336,392.375L56.965,392.375C57.372,391.733 57.774,391.097 58.172,390.466C66.359,377.483 72.624,366.762 77.305,358.321C85.918,342.791 89.17,334.975 89.17,334.975C89.17,334.975 90.965,330.986 94.168,323.925C97.425,316.744 102.138,306.384 107.899,293.811C111.684,285.55 115.922,276.333 120.497,266.434C124.781,257.162 129.361,247.293 134.141,237.05C141.907,220.407 150.202,202.777 158.619,185.125C165.7,170.274 172.867,155.406 179.876,141.097C184.106,132.462 188.279,124.03 192.342,115.928C199.347,101.956 206.023,88.963 212.098,77.597C213.658,74.677 215.178,71.864 216.654,69.17C218.696,65.445 220.652,61.946 222.511,58.702C223.815,56.426 225.072,54.275 226.276,52.26C227.629,49.999 228.915,47.908 230.13,46.002C234.321,39.468 238.358,33.364 242.283,27.666C247.246,20.46 252.031,13.903 256.725,7.944L260.083,7.944C259.271,11.752 258.353,16.027 257.339,20.715C256.207,25.948 254.953,31.697 253.59,37.886C252.689,41.978 251.74,46.262 250.747,50.717C249.859,54.696 248.936,58.811 247.98,63.047C245.151,75.575 242.032,89.16 238.682,103.403C236.231,113.825 233.657,124.599 230.983,135.569C227.668,149.171 224.199,163.075 220.623,176.982C216.524,192.918 212.285,208.858 207.971,224.355C206.039,231.297 204.092,238.149 202.137,244.873C199.776,252.99 197.402,260.919 195.027,268.589C192.581,276.486 190.133,284.109 187.694,291.379C184.132,302.001 180.591,311.871 177.107,320.749C176.342,322.7 175.579,324.603 174.819,326.455C171.987,333.301 168.764,340.332 165.199,347.496C160.03,357.882 154.142,368.547 147.682,379.326C145.085,383.661 142.396,388.014 139.624,392.375L84.724,392.375C87.814,387.104 90.866,381.736 93.873,376.271C99.195,366.601 104.377,356.629 109.382,346.352C112.72,339.499 115.979,332.511 119.148,325.388C121.025,321.161 122.884,316.937 124.727,312.718C128.826,303.33 132.84,293.966 136.776,284.644C140.474,275.886 144.103,267.165 147.667,258.5C151.323,249.612 154.911,240.781 158.437,232.027C165.42,214.691 172.158,197.653 178.694,181.053C184.36,166.662 189.874,152.6 195.264,138.959C198.941,129.653 202.56,120.543 206.13,111.658C211.516,98.253 216.789,85.36 221.981,73.081C223.347,69.849 224.708,66.66 226.063,63.515C227.687,59.747 229.303,56.043 230.912,52.406C232.492,48.837 234.066,45.331 235.634,41.893C237.86,37.012 240.076,32.267 242.283,27.666C245.596,20.758 248.891,14.174 252.176,7.944L241.91,39.615C241.91,39.615 241.216,41.947 239.931,46.216C239.039,49.181 237.863,53.081 236.436,57.782C235.467,60.975 234.382,64.539 233.193,68.431C229.894,79.232 225.791,92.561 221.118,107.53C218.214,116.834 215.089,126.772 211.8,137.13C207.592,150.382 203.115,164.322 198.488,178.503C193.132,194.914 187.574,211.647 181.995,228.009C179.277,235.981 176.554,243.866 173.848,251.581C170.85,260.129 167.872,268.469 164.942,276.494C161.669,285.462 158.456,294.035 155.344,302.063C152.073,310.5 148.914,318.334 145.912,325.388C144.709,328.216 143.412,331.12 142.026,334.093C137.802,343.155 132.751,352.86 127.013,363.008C121.664,372.467 115.718,382.31 109.287,392.375L118.788,392.375C128.556,388.077 138.204,383.723 147.682,379.326C157.702,374.678 167.532,369.981 177.113,365.249C188.134,359.806 198.825,354.317 209.099,348.804C220.672,342.594 231.714,336.353 242.098,330.111C251.331,324.561 260.043,319.012 268.146,313.483C272.222,310.702 276.143,307.927 279.899,305.159C284.933,301.45 289.67,297.755 294.081,294.081C300.946,288.364 307.023,282.698 312.21,277.108C309.477,279.742 305.015,282.87 299.132,286.394C297.49,288.969 295.806,291.532 294.081,294.081C289.59,300.714 284.814,307.255 279.736,313.677C279.58,313.872 279.423,314.068 279.265,314.264C277.227,316.779 274.933,319.336 272.397,321.93C269.198,325.204 265.614,328.536 261.676,331.917C259.095,334.132 256.363,336.369 253.487,338.623C246.466,344.126 238.591,349.736 229.986,355.41C219.653,362.224 208.269,369.13 196.05,376.057C186.455,381.496 176.346,386.947 165.827,392.375L162.285,392.375C167.276,383.76 172.234,374.722 177.113,365.249C181.783,356.184 186.381,346.721 190.87,336.852C194.636,328.573 198.325,320.008 201.915,311.151C205.519,302.259 209.023,293.074 212.404,283.59C214.834,276.773 217.201,269.801 219.496,262.672C221.904,255.192 224.232,247.54 226.472,239.713C228.171,233.776 229.819,227.738 231.412,221.598C235.207,206.967 238.687,191.759 241.795,175.961C244.062,164.436 246.131,152.597 247.979,140.438C248.279,138.481 248.576,136.541 248.872,134.616C250.713,122.617 252.469,111.234 254.143,100.438C256.447,85.579 258.596,71.83 260.601,59.107C261.336,54.445 262.051,49.921 262.747,45.531C263.494,40.823 264.219,36.27 264.923,31.865C266.056,24.77 267.135,18.062 268.162,11.718C268.368,10.446 268.572,9.187 268.774,7.944L273.14,7.944C271.477,9.166 269.818,10.425 268.162,11.718C264.536,14.552 260.928,17.555 257.339,20.715C250.019,27.159 242.78,34.254 235.634,41.893C232.496,45.247 229.377,48.706 226.276,52.26C223.265,55.713 220.272,59.255 217.297,62.88C214.06,66.825 210.845,70.867 207.655,74.995C205.683,77.546 203.721,80.129 201.768,82.743C192.408,95.274 183.265,108.501 174.375,122.145C169.591,129.487 164.881,136.949 160.249,144.489C150.864,159.766 141.801,175.36 133.107,190.905C122.931,209.102 113.259,227.232 104.164,244.714C98.377,255.838 92.823,266.7 87.522,277.149C82.418,287.207 77.549,296.883 72.931,306.041C66.959,317.882 61.407,328.858 56.31,338.679C55.84,339.585 55.374,340.48 54.912,341.366C48.925,352.84 43.445,363.268 38.337,372.861C34.657,379.773 31.17,386.251 27.827,392.375L7.944,359.112C12.12,357.264 16.36,355.41 20.665,353.552C32.086,348.621 43.963,343.66 56.31,338.679C68.469,333.775 81.083,328.853 94.168,323.925C104.082,320.191 114.267,316.454 124.727,312.718C134.681,309.163 144.885,305.61 155.344,302.063C165.867,298.494 176.649,294.931 187.694,291.379C195.789,288.776 204.024,286.179 212.404,283.59C220.429,281.11 228.586,278.637 236.877,276.173C245.868,273.5 255.017,270.838 264.325,268.187C272.934,265.736 281.679,263.295 290.563,260.867C294.922,259.675 299.314,258.486 303.74,257.3C308.326,256.071 312.947,254.846 317.604,253.624C321.411,252.626 325.241,251.63 329.096,250.636C332.46,249.769 335.843,248.904 339.244,248.04C340.467,247.73 341.691,247.42 342.918,247.111C343.15,247.052 343.382,246.993 343.614,246.935L312.215,277.108L312.21,277.108L250.117,345.974C254.141,341.408 257.992,336.718 261.676,331.917C268.269,323.327 274.33,314.382 279.899,305.159C282.247,301.27 284.508,297.331 286.685,293.348C290.609,286.167 294.259,278.843 297.653,271.41C299.782,266.747 301.809,262.041 303.74,257.3C305.827,252.178 307.8,247.016 309.667,241.823C311.624,236.376 313.464,230.896 315.192,225.394C316.397,221.559 317.547,217.713 318.646,213.861C322.265,201.168 325.319,188.405 327.886,175.717C330.603,162.286 332.773,148.938 334.489,135.845C336.251,122.401 337.533,109.225 338.435,96.505C339.665,79.158 340.189,62.657 340.257,47.472C340.288,40.566 340.225,33.933 340.091,27.616C339.957,21.278 339.753,15.259 339.501,9.603C334.144,10.203 328.35,11.064 322.194,12.274C315.09,13.67 307.503,15.53 299.547,17.987C294.337,19.596 288.97,21.461 283.476,23.621C277.43,25.996 271.232,28.728 264.923,31.865C261.181,33.726 257.401,35.729 253.59,37.886C249.075,40.442 244.517,43.213 239.931,46.216C236.935,48.179 233.928,50.24 230.912,52.406C228.117,54.414 225.316,56.511 222.511,58.702C220.774,60.058 219.036,61.451 217.297,62.88C215.302,64.52 213.307,66.208 211.312,67.945C210.349,68.785 209.386,69.635 208.423,70.498C205.621,73.007 202.821,75.617 200.027,78.329C198.891,79.433 197.755,80.553 196.621,81.691C195.429,82.886 194.238,84.101 193.049,85.334C191.626,86.811 190.205,88.316 188.787,89.849C186.502,92.319 184.224,94.863 181.954,97.482C173.339,107.424 164.826,118.007 156.447,129.06C151.69,135.334 146.976,141.76 142.311,148.306C131.156,163.959 120.281,180.298 109.765,196.895C97.846,215.707 86.389,234.851 75.511,253.703C68.691,265.523 62.098,277.228 55.761,288.665C50.014,299.038 44.477,309.191 39.173,319.008C32.637,331.103 26.455,342.689 20.665,353.552C16.183,361.959 11.937,369.933 7.944,377.375L7.944,384.309C17.482,380.686 27.668,376.855 38.337,372.861C50.756,368.212 63.831,363.342 77.305,358.321C87.796,354.412 98.529,350.411 109.382,346.352C120.184,342.313 131.105,338.215 142.026,334.093C153.769,329.66 165.513,325.199 177.107,320.749C185.472,317.538 193.761,314.334 201.915,311.151C210.97,307.616 219.86,304.109 228.51,300.648C238.675,296.581 248.508,292.58 257.884,288.677C267.266,284.773 276.191,280.967 284.535,277.295C289.087,275.292 293.467,273.328 297.653,271.41C302.683,269.104 307.435,266.864 311.874,264.699C316.398,262.491 320.596,260.362 324.431,258.32C328.893,255.945 332.863,253.688 336.285,251.566C338.801,250.006 341.02,248.519 342.918,247.111C343.158,246.933 343.393,246.756 343.622,246.581L343.618,246.576C354.332,238.505 363.738,230.01 371.992,221.279C372.536,220.703 373.076,220.125 373.611,219.547C377.148,215.722 380.468,211.855 383.584,207.96C386.718,204.043 389.645,200.098 392.379,196.141L392.379,206.951C389.503,207.296 386.571,207.632 383.584,207.96C378.083,208.565 372.391,209.146 366.502,209.714C361.186,210.226 355.708,210.727 350.066,211.224C345.181,211.654 340.172,212.082 335.037,212.511C329.71,212.957 324.248,213.405 318.646,213.861C313.799,214.255 308.848,214.655 303.792,215.064C295.691,215.719 287.318,216.399 278.665,217.116C278.218,217.153 277.772,217.191 277.327,217.228C268.942,217.933 260.855,218.654 253.037,219.4C245.594,220.109 238.394,220.84 231.412,221.598C223.319,222.477 215.519,223.393 207.971,224.355C198.976,225.502 190.34,226.715 181.995,228.009C173.888,229.266 166.056,230.601 158.437,232.027C150.111,233.585 142.039,235.253 134.141,237.05C123.915,239.375 113.981,241.916 104.164,244.714C94.556,247.452 85.06,250.435 75.511,253.703C65.165,257.244 54.758,261.118 44.082,265.376C32.446,270.015 20.49,275.11 7.944,280.723L7.944,280.523C22.305,257.636 37.184,235.767 52.807,215.219C67.568,195.805 82.993,177.57 99.275,160.769C102.727,157.207 106.218,153.709 109.75,150.278C118.241,142.027 126.967,134.163 135.951,126.72C136.788,126.026 137.627,125.337 138.469,124.65C150.021,115.231 162,106.506 174.46,98.544C175.921,97.611 177.38,96.693 178.836,95.791C179.594,95.322 180.352,94.857 181.108,94.396C181.511,94.151 181.913,93.907 182.316,93.664C184.478,92.358 186.635,91.087 188.787,89.849C193.137,87.347 197.465,84.98 201.768,82.743C205.228,80.945 208.672,79.23 212.098,77.597C215.409,76.017 218.704,74.513 221.981,73.081C225.744,71.437 229.482,69.888 233.193,68.431C238.173,66.476 243.103,64.685 247.98,63.047C252.229,61.62 256.438,60.309 260.601,59.107C267.672,57.067 274.612,55.341 281.404,53.896C287.163,52.67 292.816,51.645 298.35,50.801C306.686,49.528 314.754,48.664 322.515,48.135C328.625,47.718 334.546,47.509 340.257,47.472C347.976,47.421 355.312,47.685 362.218,48.175C370.415,48.756 378.006,49.656 384.914,50.726C387.499,51.126 389.989,51.551 392.379,51.991L392.379,31.141C389.599,30.55 386.402,29.951 382.816,29.406C383.689,35.319 384.476,42.462 384.914,50.726C385.627,64.188 385.414,80.623 383.142,99.549C381.667,111.828 379.326,125.155 375.808,139.399C372.858,151.344 369.08,163.934 364.292,177.092C360.291,188.088 355.585,199.48 350.066,211.224C348.379,214.815 346.615,218.439 344.773,222.094C342.871,225.867 340.885,229.674 338.811,233.513C335.765,239.153 332.531,244.862 329.096,250.636C327.58,253.185 326.025,255.746 324.431,258.32C320.593,264.514 316.526,270.778 312.215,277.108C321.006,268.651 329.007,260.118 336.285,251.566C337.285,250.391 338.271,249.216 339.244,248.04C344.717,241.429 349.763,234.811 354.416,228.214C356.183,225.708 357.893,223.206 359.548,220.708C361.984,217.032 364.3,213.366 366.502,209.714C372.975,198.981 378.466,188.37 383.117,177.999C386.675,170.064 389.742,162.269 392.379,154.667L392.379,141.307C386.996,140.643 381.467,140.004 375.808,139.399C368.917,138.661 361.833,137.974 354.583,137.354C348.015,136.792 341.31,136.285 334.489,135.845C328.893,135.485 323.219,135.17 317.476,134.908C308.889,134.516 300.15,134.241 291.297,134.108C284.433,134.005 277.501,133.986 270.517,134.064C263.35,134.143 256.129,134.323 248.872,134.616C242.93,134.856 236.963,135.171 230.983,135.569C224.601,135.993 218.202,136.511 211.8,137.13C206.288,137.663 200.773,138.271 195.264,138.959C190.128,139.601 184.997,140.312 179.876,141.097C173.312,142.104 166.765,143.231 160.249,144.489C154.24,145.649 148.257,146.919 142.311,148.306C135.66,149.858 129.056,151.557 122.512,153.412C114.67,155.635 106.916,158.082 99.275,160.769C94.04,162.611 88.858,164.565 83.738,166.637C77.56,169.137 71.47,171.81 65.485,174.663C63.887,175.425 62.297,176.2 60.714,176.987C60.037,177.324 59.361,177.664 58.687,178.005C41.385,186.776 25.019,197.131 9.95,209.304C9.28,209.845 8.611,210.388 7.944,210.931L7.944,214.005C16.935,207.336 25.822,200.924 34.578,194.737C37.032,193.003 39.475,191.287 41.908,189.588C47.563,185.638 53.158,181.78 58.687,178.005C87.456,158.364 114.413,140.982 138.469,124.65C153.075,114.734 166.612,105.204 178.836,95.791C186.425,89.947 193.508,84.148 200.027,78.329C202.152,76.432 204.218,74.533 206.221,72.629C206.963,71.924 207.697,71.214 208.423,70.498C226.709,52.463 240.074,30.885 250.728,7.944L250.9,7.944C240.785,29.797 228.225,50.424 211.312,67.945C209.66,69.656 207.967,71.338 206.231,72.988C203.17,75.896 199.964,78.795 196.621,81.691C191.736,85.922 186.558,90.149 181.108,94.396C167.606,104.919 152.44,115.567 135.951,126.72C113.107,142.17 87.726,158.59 60.714,176.987C57.527,179.158 54.318,181.356 51.087,183.583C45.21,187.635 39.264,191.783 33.256,196.037C24.928,201.935 16.483,208.037 7.944,214.371L7.944,222.632C16.01,213.612 24.438,204.735 33.256,196.037C33.696,195.603 34.136,195.17 34.578,194.737C34.694,194.624 34.81,194.51 34.926,194.397C34.926,194.397 37.36,192.638 41.908,189.588C44.367,187.939 47.444,185.913 51.087,183.583C55.191,180.959 60.015,177.95 65.485,174.663C73.406,169.903 82.683,164.558 93.094,158.952C98.365,156.114 103.926,153.209 109.75,150.278C118.065,146.093 126.915,141.857 136.215,137.691C142.746,134.765 149.5,131.874 156.447,129.06C162.292,126.692 168.274,124.379 174.375,122.145C180.258,119.991 186.252,117.911 192.342,115.928C196.887,114.448 201.485,113.022 206.13,111.658C211.075,110.207 216.074,108.827 221.118,107.53C226.917,106.039 232.776,104.658 238.682,103.403C243.802,102.316 248.959,101.324 254.143,100.438C261.474,99.186 268.862,98.147 276.285,97.352C282.602,96.676 288.943,96.177 295.296,95.874C303.303,95.493 311.329,95.424 319.346,95.707C319.843,95.725 320.339,95.742 320.833,95.76C326.923,95.981 332.788,96.23 338.435,96.505C345.943,96.87 353.067,97.281 359.826,97.73C368.138,98.282 375.898,98.893 383.142,99.549C386.319,99.837 389.397,100.134 392.379,100.438" style="fill:none;stroke:white;stroke-width:5.21px;stroke-linecap:round;stroke-linejoin:round;"/>
            </g>
        </g>
    </g>
</svg>
