<?xml version="1.0" encoding="utf-8"?>
<!-- Generator: Adobe Illustrator 25.0.0, SVG Export Plug-In . SVG Version: 6.00 Build 0)  -->
<svg version="1.1" id="Layer_1" xmlns="http://www.w3.org/2000/svg" xmlns:xlink="http://www.w3.org/1999/xlink" x="0px" y="0px"
	 viewBox="0 0 368.5 88.8" style="enable-background:new 0 0 368.5 88.8;" xml:space="preserve">
<g>
	<g>
		<path d="M25.5,69c-4.5,0-8.8-0.6-12.9-1.8c-4.1-1.2-7.5-2.8-10-4.7l4.4-9.8c2.3,1.7,5.2,3.1,8.5,4.2c3.3,1.1,6.6,1.6,10,1.6
			c2.6,0,4.6-0.3,6.2-0.8c1.6-0.5,2.7-1.2,3.5-2.1c0.7-0.9,1.1-1.9,1.1-3.1c0-1.5-0.6-2.7-1.8-3.6c-1.2-0.9-2.7-1.6-4.7-2.2
			c-1.9-0.6-4.1-1.1-6.4-1.6c-2.3-0.5-4.6-1.1-6.9-1.8c-2.3-0.7-4.5-1.7-6.4-2.9c-1.9-1.2-3.5-2.8-4.6-4.7c-1.1-1.9-1.7-4.4-1.7-7.3
			c0-3.2,0.9-6.1,2.6-8.8c1.7-2.6,4.3-4.7,7.8-6.3c3.5-1.6,7.9-2.4,13.2-2.4c3.5,0,7,0.4,10.4,1.3c3.4,0.9,6.4,2.1,9,3.7l-4.1,9.8
			c-2.5-1.4-5.1-2.5-7.8-3.2c-2.7-0.7-5.2-1.1-7.7-1.1c-2.6,0-4.6,0.3-6.2,0.8c-1.5,0.6-2.7,1.3-3.4,2.3c-0.7,1-1.1,2-1.1,3.2
			c0,1.5,0.6,2.7,1.8,3.6c1.2,0.9,2.7,1.6,4.6,2.1c1.9,0.5,4.1,1,6.4,1.5c2.3,0.5,4.7,1.1,7,1.9c2.3,0.7,4.4,1.7,6.3,2.8
			c1.9,1.1,3.5,2.7,4.7,4.6c1.2,1.9,1.8,4.4,1.8,7.2c0,3.1-0.9,6-2.6,8.6c-1.7,2.6-4.4,4.7-7.9,6.3S30.8,69,25.5,69z"/>
		<path d="M62.7,84.2c-2.2,0-4.4-0.3-6.6-1c-2.2-0.7-4-1.7-5.4-2.9l4.6-9c1,0.9,2.1,1.6,3.3,2.1c1.3,0.5,2.5,0.7,3.8,0.7
			c1.7,0,3.1-0.4,4.1-1.2c1-0.8,2-2.2,2.8-4.1l2.2-5.3l1-1.4L88,25h11.9L80.5,70.7c-1.4,3.5-3,6.3-4.8,8.2c-1.8,1.9-3.8,3.3-5.9,4.1
			C67.7,83.8,65.3,84.2,62.7,84.2z M70,69.7L50.9,25h12.8l15,36.1L70,69.7z"/>
		<path d="M105.1,83.6V25H117v8.8l-0.2,12.8l0.8,12.7v24.2H105.1z M130.4,68.7c-3.6,0-6.7-0.8-9.4-2.4c-2.7-1.6-4.8-4-6.4-7.3
			c-1.5-3.3-2.3-7.4-2.3-12.4c0-5.1,0.7-9.2,2.2-12.5c1.4-3.3,3.5-5.7,6.3-7.3c2.7-1.6,6-2.4,9.6-2.4c4.1,0,7.8,0.9,11,2.8
			c3.2,1.8,5.8,4.4,7.7,7.7c1.9,3.3,2.8,7.2,2.8,11.7c0,4.5-0.9,8.4-2.8,11.7c-1.9,3.3-4.5,5.8-7.7,7.7
			C138.2,67.8,134.5,68.7,130.4,68.7z M128.3,58.5c2.1,0,3.9-0.5,5.6-1.4c1.6-1,2.9-2.3,3.9-4.1c1-1.8,1.5-3.9,1.5-6.4
			c0-2.5-0.5-4.6-1.5-6.4c-1-1.8-2.3-3.1-3.9-4c-1.6-0.9-3.5-1.4-5.6-1.4s-3.9,0.5-5.6,1.4c-1.7,0.9-3,2.3-4,4
			c-1,1.8-1.5,3.9-1.5,6.4c0,2.5,0.5,4.6,1.5,6.4c1,1.8,2.3,3.2,4,4.1C124.4,58,126.3,58.5,128.3,58.5z"/>
		<path d="M178.5,66c-3.9,0-7.5-0.9-10.7-2.6c-3.3-1.7-5.8-4.2-7.8-7.3s-2.9-6.8-2.9-10.9c0-4.2,1-7.9,2.9-11s4.5-5.5,7.8-7.2
			c3.3-1.7,6.8-2.6,10.7-2.6c3.7,0,7,0.7,9.7,2.2c2.7,1.5,4.9,3.7,6.4,6.8c1.5,3.1,2.3,7,2.3,11.8c0,4.7-0.8,8.7-2.3,11.7
			c-1.5,3.1-3.7,5.3-6.4,6.8C185.5,65.2,182.2,66,178.5,66z M180.5,84.2c-4.1,0-8-0.5-11.7-1.5c-3.8-1-6.9-2.5-9.4-4.4l5-9
			c1.9,1.5,4.2,2.8,6.9,3.6c2.7,0.9,5.5,1.3,8.4,1.3c4.4,0,7.6-1,9.6-3c2-2,3-4.9,3-8.8v-6.4l0.8-10.9l-0.2-11V25h11.8v35.8
			c0,7.9-2.1,13.8-6.2,17.6C194.2,82.3,188.3,84.2,180.5,84.2z M181,55.8c2.2,0,4.1-0.5,5.8-1.4c1.7-0.9,3-2.2,4-3.8
			s1.4-3.4,1.4-5.5c0-2.1-0.5-4-1.4-5.6c-1-1.6-2.3-2.8-4-3.6c-1.7-0.9-3.7-1.3-5.8-1.3c-2.1,0-4.1,0.4-5.8,1.3
			c-1.7,0.9-3.1,2.1-4.1,3.6c-1,1.6-1.5,3.4-1.5,5.6c0,2.1,0.5,3.9,1.5,5.5c1,1.6,2.3,2.9,4.1,3.8C177,55.4,178.9,55.8,181,55.8z"/>
		<path d="M216.2,68.1V8.7h12.5v59.4H216.2z"/>
		<path d="M253.6,68.7c-3.3,0-6.2-0.6-8.6-1.7c-2.4-1.1-4.3-2.7-5.6-4.7c-1.3-2-2-4.2-2-6.6c0-2.5,0.6-4.7,1.9-6.7
			c1.3-1.9,3.2-3.5,6-4.5c2.7-1.1,6.3-1.6,10.7-1.6h11.4v7.2h-10.1c-2.9,0-4.9,0.5-6,1.4c-1.1,1-1.6,2.2-1.6,3.6
			c0,1.6,0.6,2.9,1.9,3.8c1.3,0.9,2.9,1.4,5.1,1.4c2.1,0,4-0.5,5.7-1.4c1.7-1,2.9-2.4,3.6-4.4l1.9,5.8c-0.9,2.7-2.6,4.7-5,6.2
			C260.5,68,257.4,68.7,253.6,68.7z M266.7,68.1v-8.4l-0.8-1.8v-15c0-2.7-0.8-4.7-2.4-6.2c-1.6-1.5-4.1-2.2-7.5-2.2
			c-2.3,0-4.5,0.4-6.8,1.1c-2.2,0.7-4.1,1.7-5.7,2.9l-4.4-8.7c2.3-1.7,5.2-3,8.5-3.9c3.3-0.9,6.7-1.3,10.1-1.3
			c6.6,0,11.7,1.5,15.3,4.6c3.6,3.1,5.4,7.9,5.4,14.5v24.6H266.7z"/>
		<path d="M304.2,68.7c-3.7,0-7.2-0.4-10.6-1.3c-3.4-0.9-6.1-2-8.1-3.3l4.1-8.9c2,1.2,4.4,2.1,7.1,2.9c2.7,0.8,5.3,1.2,8,1.2
			c2.9,0,4.9-0.3,6.1-1c1.2-0.7,1.8-1.7,1.8-2.9c0-1-0.5-1.8-1.4-2.3c-0.9-0.5-2.2-0.9-3.7-1.2c-1.5-0.3-3.2-0.5-5.1-0.8
			c-1.9-0.3-3.7-0.6-5.6-1.1s-3.5-1.2-5.1-2c-1.6-0.9-2.8-2.1-3.8-3.6c-0.9-1.5-1.4-3.5-1.4-6c0-2.7,0.8-5.1,2.4-7.2
			c1.6-2.1,3.9-3.7,6.8-4.9c2.9-1.2,6.5-1.8,10.6-1.8c3,0,6,0.3,9,1c3,0.7,5.6,1.6,7.6,2.8l-4.2,8.9c-2-1.2-4.1-2-6.2-2.5
			c-2.1-0.5-4.1-0.7-6-0.7c-2.9,0-5,0.4-6.2,1.1c-1.3,0.7-1.9,1.7-1.9,2.9c0,1.1,0.5,1.9,1.4,2.4c1,0.6,2.2,1,3.8,1.2
			c1.5,0.3,3.3,0.5,5.1,0.8c1.9,0.3,3.7,0.6,5.5,1.1c1.8,0.5,3.5,1.2,5.1,2c1.6,0.9,2.8,2.1,3.8,3.6c0.9,1.5,1.4,3.5,1.4,6
			c0,2.6-0.8,4.9-2.4,7c-1.6,2.1-3.9,3.7-6.9,4.8C312.2,68.1,308.5,68.7,304.2,68.7z"/>
		<path d="M346.6,68.7c-3.7,0-7.2-0.4-10.6-1.3c-3.4-0.9-6.1-2-8.1-3.3l4.1-8.9c2,1.2,4.4,2.1,7.1,2.9c2.7,0.8,5.3,1.2,8,1.2
			c2.9,0,4.9-0.3,6.1-1c1.2-0.7,1.8-1.7,1.8-2.9c0-1-0.5-1.8-1.4-2.3c-0.9-0.5-2.2-0.9-3.7-1.2c-1.5-0.3-3.2-0.5-5.1-0.8
			c-1.9-0.3-3.7-0.6-5.6-1.1s-3.5-1.2-5.1-2c-1.6-0.9-2.8-2.1-3.8-3.6c-0.9-1.5-1.4-3.5-1.4-6c0-2.7,0.8-5.1,2.4-7.2
			c1.6-2.1,3.9-3.7,6.8-4.9c2.9-1.2,6.5-1.8,10.6-1.8c3,0,6,0.3,9,1c3,0.7,5.6,1.6,7.6,2.8l-4.2,8.9c-2-1.2-4.1-2-6.2-2.5
			c-2.1-0.5-4.1-0.7-6-0.7c-2.9,0-5,0.4-6.2,1.1c-1.3,0.7-1.9,1.7-1.9,2.9c0,1.1,0.5,1.9,1.4,2.4c1,0.6,2.2,1,3.8,1.2
			c1.5,0.3,3.3,0.5,5.1,0.8c1.9,0.3,3.7,0.6,5.5,1.1c1.8,0.5,3.5,1.2,5.1,2c1.6,0.9,2.8,2.1,3.8,3.6c0.9,1.5,1.4,3.5,1.4,6
			c0,2.6-0.8,4.9-2.4,7c-1.6,2.1-3.9,3.7-6.9,4.8C354.6,68.1,351,68.7,346.6,68.7z"/>
	</g>
</g>
</svg>
