<?xml version="1.0" encoding="utf-8"?>
<!-- Generator: Adobe Illustrator 27.0.0, SVG Export Plug-In . SVG Version: 6.00 Build 0)  -->
<svg version="1.1" xmlns="http://www.w3.org/2000/svg" xmlns:xlink="http://www.w3.org/1999/xlink" x="0px" y="0px"
	 viewBox="0 0 1200 1200" style="enable-background:new 0 0 1200 1200;" xml:space="preserve">
<style type="text/css">
	.st0{clip-path:url(#SVGID_00000093157160410002989400000006787502694844940456_);}
	.st1{fill:none;stroke:#FFFFFF;stroke-width:42.903;stroke-miterlimit:10.8;}
	.st2{fill:none;stroke:#FFFFFF;stroke-width:14.067;stroke-linecap:round;stroke-linejoin:round;stroke-miterlimit:10.8;}
</style>
<g id="Layer_2">
	<rect width="1200" height="1200"/>
</g>
<g id="Layer_1" xmlns:serif="http://www.serif.com/">
	<g>
		<g>
			<defs>
				<rect id="SVGID_1_" x="60" y="60" width="1080" height="1080"/>
			</defs>
			<clipPath id="SVGID_00000147220541100632125350000006100096699885310908_">
				<use xlink:href="#SVGID_1_"  style="overflow:visible;"/>
			</clipPath>
			<g style="clip-path:url(#SVGID_00000147220541100632125350000006100096699885310908_);">
				<rect x="81.4" y="81.4" class="st1" width="1038" height="1038"/>
				<g>
					<path class="st2" d="M81.4,892.7c12.6-5.6,25.5-11.2,38.6-16.8c29-12.4,59.2-24.6,90.5-36.5c27.7-10.6,56.3-21,85.8-31.1
						c28.8-9.9,58.5-19.6,89-28.9c23.9-7.3,48.4-14.5,73.4-21.4c23.1-6.4,46.7-12.6,70.7-18.7c25-6.3,50.4-12.3,76.4-18.1
						c21.6-4.8,43.5-9.5,65.7-13.9c19.9-4,40.1-7.8,60.5-11.5c22.4-4,45.1-7.9,68.2-11.5c23.6-3.7,47.5-7.2,71.7-10.5
						c12.9-1.8,25.9-3.4,39.1-5.1c14-1.7,28.2-3.4,42.4-5c12.4-1.4,24.9-2.7,37.5-3.9c13.2-1.3,26.5-2.6,39.9-3.7
						c12.6-1.1,25.2-2.2,38-3.1c2.6-0.2,5.1-0.4,7.7-0.6c5.4-0.4,10.9-0.8,16.4-1.2l26.6-109.1c-8.3-0.4-16.6-0.8-25-1.3
						c-16.6-0.8-33.6-1.7-50.8-2.4c-16-0.7-32.3-1.4-48.9-2.1c-16.2-0.6-32.7-1.2-49.4-1.7c-14.2-0.4-28.7-0.7-43.3-1
						c-23.3-0.4-47.1-0.7-71.5-0.6c-19.9,0-40.2,0.2-60.8,0.6c-18.7,0.4-37.6,0.9-56.9,1.7c-18.8,0.7-37.8,1.6-57.2,2.8
						c-19.6,1.1-39.6,2.5-59.8,4.1c-10.3,0.8-20.7,1.7-31.1,2.7c-7.5,1.4-14.9,2.8-22.3,4.2c-18.4,3.6-36.5,7.2-54.2,11
						c-23.6,5-46.5,10.2-68.9,15.6c-21.5,5.2-42.5,10.6-63,16.2c-24.3,6.6-47.9,13.6-70.8,20.8c-28.8,9.1-56.4,18.6-83,28.7
						c-25.4,9.6-49.9,19.7-73.5,30.4c-16.3,7.3-32.2,14.9-47.6,22.8v37.8c15.6-20.7,31.4-40.9,47.6-60.6
						c49.2-59.7,101.4-114.3,157-161.5c8.3-7.1,16.8-14,25.3-20.7c19.8-15.7,40-30.5,60.7-44.3L929.6,81.4c0.1,3.9,0.2,7.7,0.3,11.7
						c0.4,14.8,0.7,30.2,0.9,46.1c0.2,16.3,0.2,33.3,0,50.7c-0.4,40.5-1.8,83.6-4.5,128.6c-2.1,34.3-5.1,69.7-9.1,105.7
						c-4,35.9-9,72.5-15.2,109.2c-6,35.7-13.2,71.6-21.8,107.2c-2.6,11-5.4,22-8.3,33c-4.3,16.3-8.9,32.6-13.8,48.8
						c-4.3,14.1-8.8,28.1-13.6,41.9c-5.1,14.9-10.6,29.7-16.3,44.4c-7.8,20.1-16.2,39.8-25.3,59.2c-6.1,13-12.4,25.9-19,38.5
						c-12.2,23.3-25.4,46-39.6,67.9c-17.5,26.9-36.5,52.5-57.2,76.5c-5.8,6.8-11.8,13.4-17.8,19.9c-4.6,4.9-9.3,9.7-14,14.5
						c0,0-8.4,6-24.8,16.7c-7.5,4.9-16.6,10.8-27.3,17.5h-37.4c7.8-14,15.6-28.7,23.4-44.1c11.8-23,23.5-47.5,35.2-73.6
						c9.3-20.7,18.5-42.3,27.6-64.9c8.4-20.8,16.7-42.5,24.8-65.1c7.7-21.3,15.2-43.3,22.6-66.1c5.3-16.5,10.6-33.4,15.7-50.8
						c5.7-19.2,11.3-38.9,16.7-59.2c3.8-14.2,7.5-28.6,11.2-43.3c9.2-36.9,17.8-75.3,25.8-115.4c0.2-1.2,0.5-2.3,0.7-3.5
						c7.9-39.9,14.7-76.9,20.7-111.5c6.1-35.7,11.3-68.6,15.6-99.1c6.2-43.8,10.7-82.6,13.8-117.3c1.3-14.7,2.4-28.6,3.4-41.9
						c1-14,1.7-27.3,2.2-39.8c0.7-15,1-29.1,1.2-42.3h42.7c-0.2,9.1-0.3,18.1-0.6,27.1c-0.3,14.4-0.8,28.7-1.3,42.7
						c-0.6,15.5-1.2,30.8-2,45.9c-2.1,42.3-4.9,82.8-8.2,121.7c-3.1,35.8-6.7,70.2-10.8,103.2c-4.8,38.8-10.1,75.7-16,110.7
						c-6.7,40.4-14,78.2-21.8,113.7c-2.8,12.9-5.7,25.4-8.6,37.6c-4.5,19-9.1,37.3-13.8,54.8c-4.2,15.6-8.4,30.7-12.7,45.1
						c-5.8,19.5-11.6,37.9-17.4,55.3c-7.3,21.9-14.6,42.2-21.8,60.9c-7.1,18.5-14.1,35.5-20.8,51c-11.9,27.5-23.1,50.2-32.7,68.3
						c-20.6,38.9-34.3,57-34.3,57c-4.7,8.5-10.1,17-16.1,25.3c-4.2,5.9-8.7,11.7-13.5,17.5h8.1c14.9-16.3,29.6-32.6,44.2-48.7
						c6-6.7,11.9-13.3,17.8-19.9c37.5-41.9,73.7-82.9,108.3-121.6c6.2-7,12.4-13.9,18.5-20.7c74.6-83,141.7-154.3,199.8-201
						c32.7-26.4,68.2-47.5,105.6-64.7v-11.4c-14.3,7.4-28.6,14.3-43,20.7c-4,1.8-8,3.5-12,5.3c-15.7,6.7-31.5,12.9-47.5,18.7
						c-13.9,5.1-27.9,9.8-42.1,14.3c-12.2,3.9-24.6,7.6-37.1,11.2c-13.7,3.9-27.5,7.6-41.5,11.3c-12.5,3.2-25.1,6.4-38,9.5
						c-23.2,5.6-47.1,11.1-71.7,16.6c-23,5.2-46.6,10.4-71.1,15.9c-20.3,4.6-41.2,9.3-62.7,14.3c-21.4,5-43.4,10.3-66.1,16
						c-26.2,6.5-53.2,13.6-81.2,21.3c-24.6,6.8-49.9,14.1-76,22c-25.2,7.6-51.2,15.9-78,24.8c-30.4,10.1-61.8,21-94.4,33
						c-29.4,10.8-59.8,22.4-91.1,35c-1.6,0.6-3.1,1.3-4.7,1.9c-27.2,9.9-53.7,20.4-79.6,31.4v-11.3c12.8-22.6,25.6-45.1,38.6-67.4
						c19.4-33.6,39.1-66.8,59-99.4c34.6-56.7,70-111.8,106.6-164.1c34-48.7,69-95,105.2-138.2c12.2-14.5,24.5-28.7,37-42.4
						c39.8-43.9,81.2-83.9,124.5-118.9c5.7-4.6,11.5-9.2,17.3-13.7c3.9-3,7.8-5.9,11.6-8.8c13.2-9.9,26.4-19.2,39.4-27.9
						c8.1-5.5,16.2-10.7,24.3-15.7c8.5-5.3,17-10.4,25.4-15.3c9.4-5.4,18.7-10.6,28-15.5c13-6.9,25.9-13.2,38.6-19.1
						c10.9-5,21.7-9.7,32.4-14c18.3-7.4,36.3-13.8,53.7-19.3c15.1-4.8,29.9-8.9,44.4-12.3c22-5.3,43.2-9.2,63.3-12
						c16.6-2.3,32.4-3.8,47.5-4.7c21.3-1.3,41-1.3,58.9-0.6c21.5,0.9,40.4,2.9,56.5,5.4c-5.2-34.9-11.4-53.9-11.4-53.9
						s-17.6-2.9-47.7-2.9c1.1,15.1,2,32.3,2.7,51.4c0.6,17.2,0.9,36,0.9,56.1c-0.1,40-1.9,85.2-6.5,133.8c-3.2,34.1-7.8,70-14.2,107
						c-5.9,34.3-13.4,69.5-22.7,105.2c-8.4,32.3-18.4,65-30.1,97.7c-3.6,9.9-7.3,19.9-11.2,29.8c-5,12.7-10.2,25.4-15.8,38.1
						c-6.3,14.4-13,28.8-20.1,43.1c-5,10-10.1,20-15.5,29.9c-10.6,19.7-22.1,39.3-34.4,58.6c-9.8,5.9-21.1,12.1-33.6,18.8
						c-9.6,5.1-20,10.4-31.1,15.9c-20.7,10.3-43.7,21.1-68.5,32.4c-25.8,11.8-53.4,24-82.3,36.5c-24.8,10.7-50.6,21.7-76.8,32.7
						c-22.8,9.6-46,19.2-69.3,28.7c-34.4,14.1-69.1,28.2-103.1,41.9c-30.6,12.3-60.6,24.3-89.5,35.8c-32,12.7-62.5,24.9-90.7,36.1
						c-1.9,0.7-3.8,1.5-5.6,2.2c-4.4,1.7-8.8,3.5-13.1,5.2h9.8c1.1-1.7,2.2-3.5,3.3-5.2c22.1-35.1,39-64,51.7-86.8
						c23.3-41.9,32-63,32-63s4.8-10.8,13.5-29.8c8.8-19.4,21.5-47.4,37.1-81.3c10.2-22.3,21.7-47.2,34-73.9
						c11.6-25,23.9-51.7,36.8-79.3c21-44.9,43.4-92.5,66.1-140.2c19.1-40.1,38.5-80.2,57.4-118.9c11.4-23.3,22.7-46.1,33.7-68
						c18.9-37.7,36.9-72.8,53.3-103.5c4.2-7.9,8.3-15.5,12.3-22.8c5.5-10.1,10.8-19.5,15.8-28.3c3.5-6.1,6.9-12,10.2-17.4
						c3.7-6.1,7.1-11.8,10.4-16.9c11.3-17.6,22.2-34.1,32.8-49.5c13.4-19.5,26.3-37.2,39-53.2h9.1c-2.2,10.3-4.7,21.8-7.4,34.5
						c-3.1,14.1-6.4,29.7-10.1,46.4c-2.4,11-5,22.6-7.7,34.6c-2.4,10.7-4.9,21.9-7.5,33.3c-7.6,33.8-16.1,70.5-25.1,109
						c-6.6,28.1-13.6,57.2-20.8,86.8c-9,36.7-18.3,74.3-28,111.8c-11.1,43-22.5,86.1-34.2,127.9c-5.2,18.7-10.5,37.2-15.8,55.4
						c-6.4,21.9-12.8,43.3-19.2,64c-6.6,21.3-13.2,41.9-19.8,61.5c-9.6,28.7-19.2,55.3-28.6,79.3c-2.1,5.3-4.1,10.4-6.2,15.4
						c-7.6,18.5-16.3,37.5-26,56.8c-14,28-29.9,56.8-47.3,85.9c-7,11.7-14.3,23.5-21.8,35.2H288.8c8.3-14.2,16.6-28.7,24.7-43.5
						c14.4-26.1,28.4-53,41.9-80.8c9-18.5,17.8-37.4,26.4-56.6c5.1-11.4,10.1-22.8,15.1-34.2c11.1-25.3,21.9-50.6,32.5-75.8
						c10-23.6,19.8-47.2,29.4-70.6c9.9-24,19.6-47.8,29.1-71.5c18.9-46.8,37-92.8,54.7-137.6c15.3-38.9,30.2-76.8,44.7-113.7
						c9.9-25.1,19.7-49.7,29.3-73.7c14.5-36.2,28.8-71,42.8-104.2c3.7-8.7,7.4-17.3,11-25.8c4.4-10.2,8.7-20.2,13.1-30
						c4.3-9.6,8.5-19.1,12.7-28.4c6-13.2,12-26,18-38.4c8.9-18.7,17.8-36.4,26.7-53.2L713.2,167c0,0-1.9,6.3-5.3,17.8
						c-2.4,8-5.6,18.5-9.4,31.2c-2.6,8.6-5.5,18.2-8.8,28.8c-8.9,29.2-20,65.2-32.6,105.6c-7.8,25.1-16.3,52-25.2,79.9
						c-11.4,35.8-23.4,73.4-35.9,111.7c-14.5,44.3-29.5,89.5-44.5,133.7c-7.3,21.5-14.7,42.8-22,63.6c-8.1,23.1-16.1,45.6-24,67.3
						c-8.8,24.2-17.5,47.4-25.9,69c-8.8,22.8-17.4,43.9-25.5,63c-3.2,7.6-6.8,15.5-10.5,23.5c-11.4,24.5-25,50.7-40.5,78.1
						c-14.4,25.5-30.5,52.1-47.9,79.3h25.7c26.4-11.6,52.4-23.4,78-35.2c27.1-12.5,53.6-25.2,79.5-38c29.8-14.7,58.6-29.5,86.4-44.4
						c31.2-16.8,61.1-33.6,89.1-50.5c24.9-15,48.5-30,70.3-44.9c11-7.5,21.6-15,31.7-22.5c13.6-10,26.4-20,38.3-29.9
						c18.5-15.4,34.9-30.7,48.9-45.8c-7.4,7.1-19.4,15.6-35.3,25.1c-4.4,7-9,13.9-13.6,20.8c-12.1,17.9-25,35.6-38.7,52.9
						c-0.4,0.5-0.8,1.1-1.3,1.6c-5.5,6.8-11.7,13.7-18.5,20.7c-8.6,8.8-18.3,17.8-28.9,27c-7,6-14.3,12-22.1,18.1
						c-19,14.9-40.2,30-63.5,45.3c-27.9,18.4-58.6,37-91.6,55.7c-25.9,14.7-53.2,29.4-81.6,44.1h-9.6c13.5-23.3,26.9-47.7,40-73.2
						c12.6-24.5,25-50,37.1-76.7c10.2-22.4,20.1-45.5,29.8-69.4c9.7-24,19.2-48.8,28.3-74.4c6.6-18.4,13-37.2,19.1-56.5
						c6.5-20.2,12.8-40.9,18.8-62c4.6-16,9-32.3,13.3-48.9c10.2-39.5,19.6-80.6,28-123.2c6.1-31.1,11.7-63.1,16.7-95.9
						c0.8-5.3,1.6-10.5,2.4-15.7c5-32.4,9.7-63.1,14.2-92.3c6.2-40.1,12-77.2,17.4-111.6c2-12.6,3.9-24.8,5.8-36.7
						c2-12.7,4-25,5.9-36.9c3.1-19.2,6-37.3,8.7-54.4c0.6-3.4,1.1-6.8,1.7-10.2h11.8c-4.5,3.3-9,6.7-13.4,10.2
						c-9.8,7.7-19.5,15.8-29.2,24.3c-19.8,17.4-39.3,36.6-58.6,57.2c-8.5,9.1-16.9,18.4-25.3,28c-8.1,9.3-16.2,18.9-24.2,28.7
						c-8.7,10.7-17.4,21.6-26,32.7c-5.3,6.9-10.6,13.9-15.9,20.9c-25.3,33.8-50,69.5-74,106.4c-12.9,19.8-25.6,40-38.1,60.3
						c-25.3,41.2-49.8,83.4-73.3,125.3c-27.5,49.1-53.6,98.1-78.1,145.3c-15.6,30-30.6,59.4-44.9,87.6c-13.8,27.2-26.9,53.3-39.4,78
						c-16.1,32-31.1,61.6-44.9,88.1c-1.3,2.4-2.5,4.9-3.8,7.3c-16.2,31-31,59.1-44.8,85c-9.9,18.7-19.4,36.2-28.4,52.7l-53.7-89.8
						c11.3-5,22.7-10,34.3-15c30.8-13.3,62.9-26.7,96.2-40.2c32.8-13.2,66.9-26.5,102.2-39.8c26.8-10.1,54.3-20.2,82.5-30.3
						c26.9-9.6,54.4-19.2,82.7-28.8c28.4-9.6,57.5-19.3,87.3-28.8c21.9-7,44.1-14,66.7-21c21.7-6.7,43.7-13.4,66.1-20
						c24.3-7.2,49-14.4,74.1-21.6c23.2-6.6,46.9-13.2,70.8-19.8c11.8-3.2,23.6-6.4,35.6-9.6c12.4-3.3,24.9-6.6,37.4-9.9
						c10.3-2.7,20.6-5.4,31-8.1c9.1-2.3,18.2-4.7,27.4-7c3.3-0.8,6.6-1.7,9.9-2.5c0.6-0.2,1.3-0.3,1.9-0.5L903,808.2h0L735.3,994.1
						c10.9-12.3,21.3-25,31.2-38c17.8-23.2,34.2-47.3,49.2-72.2c6.3-10.5,12.4-21.1,18.3-31.9c10.6-19.4,20.4-39.2,29.6-59.2
						c5.7-12.6,11.2-25.3,16.4-38.1c5.6-13.8,11-27.8,16-41.8c5.3-14.7,10.3-29.5,14.9-44.4c3.3-10.4,6.4-20.7,9.3-31.1
						c9.8-34.3,18-68.7,24.9-103c7.3-36.3,13.2-72.3,17.8-107.7c4.8-36.3,8.2-71.9,10.7-106.2c3.3-46.8,4.7-91.4,4.9-132.4
						c0.1-18.6-0.1-36.6-0.4-53.6c-0.4-17.1-0.9-33.4-1.6-48.6c-14.5,1.6-30.1,3.9-46.7,7.2c-19.2,3.8-39.7,8.8-61.1,15.4
						c-14.1,4.3-28.6,9.4-43.4,15.2c-16.3,6.4-33.1,13.8-50.1,22.3c-10.1,5-20.3,10.4-30.6,16.3c-12.2,6.9-24.5,14.4-36.9,22.5
						c-8.1,5.3-16.2,10.9-24.4,16.7c-7.5,5.4-15.1,11.1-22.7,17c-4.7,3.7-9.4,7.4-14.1,11.3c-5.4,4.4-10.8,9-16.2,13.7
						c-2.6,2.3-5.2,4.6-7.8,6.9c-7.6,6.8-15.1,13.8-22.7,21.1c-3.1,3-6.1,6-9.2,9.1c-3.2,3.2-6.4,6.5-9.6,9.8
						c-3.8,4-7.7,8.1-11.5,12.2c-6.2,6.7-12.3,13.5-18.4,20.6C528,350,505,378.6,482.4,408.5c-12.8,16.9-25.6,34.3-38.2,52
						c-30.1,42.3-59.5,86.4-87.9,131.2c-32.2,50.8-63.1,102.5-92.5,153.4c-18.4,31.9-36.2,63.5-53.3,94.4
						c-15.5,28-30.5,55.4-44.8,81.9c-17.6,32.7-34.3,63.9-50,93.3c-12.1,22.7-23.6,44.2-34.3,64.3v18.7
						c25.8-9.8,53.3-20.1,82.1-30.9c33.5-12.6,68.8-25.7,105.2-39.3c28.3-10.6,57.3-21.4,86.6-32.3c29.2-10.9,58.7-22,88.1-33.1
						c31.7-12,63.4-24,94.7-36c22.6-8.7,45-17.3,67-25.9c24.4-9.5,48.5-19,71.8-28.4c27.4-11,54-21.8,79.3-32.3
						c25.3-10.5,49.4-20.8,72-30.7c12.3-5.4,24.1-10.7,35.4-15.9c13.6-6.2,26.4-12.3,38.4-18.1c12.2-6,23.5-11.7,33.9-17.2
						c12-6.4,22.8-12.5,32-18.2c6.8-4.2,12.8-8.2,17.9-12c0.6-0.5,1.3-1,1.9-1.4l0,0c28.9-21.8,54.3-44.7,76.6-68.3
						c1.5-1.6,2.9-3.1,4.4-4.7c9.5-10.3,18.5-20.8,26.9-31.3c8.5-10.6,16.4-21.2,23.7-31.9v29.2c-7.8,0.9-15.7,1.8-23.7,2.7
						c-14.9,1.6-30.2,3.2-46.1,4.7c-14.4,1.4-29.1,2.7-44.4,4.1c-13.2,1.2-26.7,2.3-40.6,3.5c-14.4,1.2-29.1,2.4-44.3,3.6
						c-13.1,1.1-26.5,2.1-40.1,3.2c-21.9,1.8-44.5,3.6-67.8,5.5c-1.2,0.1-2.4,0.2-3.6,0.3c-22.6,1.9-44.5,3.9-65.6,5.9
						c-20.1,1.9-39.5,3.9-58.4,5.9c-21.9,2.4-42.9,4.8-63.3,7.4c-24.3,3.1-47.6,6.4-70.1,9.9c-21.9,3.4-43,7-63.6,10.8
						c-22.5,4.2-44.3,8.7-65.6,13.6c-27.6,6.3-54.4,13.1-80.9,20.7c-25.9,7.4-51.6,15.4-77.4,24.3c-27.9,9.6-56,20-84.9,31.5
						c-31.4,12.5-63.7,26.3-97.6,41.4v-0.5c38.8-61.8,78.9-120.8,121.1-176.3c39.9-52.4,81.5-101.7,125.5-147
						c9.3-9.6,18.7-19.1,28.3-28.3c22.9-22.3,46.5-43.5,70.7-63.6c2.3-1.9,4.5-3.7,6.8-5.6c31.2-25.4,63.5-49,97.2-70.5
						c3.9-2.5,7.9-5,11.8-7.4c2-1.3,4.1-2.5,6.1-3.8c1.1-0.7,2.2-1.3,3.3-2c5.8-3.5,11.7-7,17.5-10.3c11.7-6.8,23.4-13.1,35-19.2
						c9.3-4.9,18.6-9.5,27.9-13.9c8.9-4.3,17.8-8.3,26.7-12.2c10.2-4.4,20.3-8.6,30.3-12.6c13.4-5.3,26.8-10.1,39.9-14.5
						c11.5-3.9,22.8-7.4,34.1-10.6c19.1-5.5,37.8-10.2,56.2-14.1c15.5-3.3,30.8-6.1,45.8-8.4c22.5-3.4,44.3-5.8,65.2-7.2
						c16.5-1.1,32.5-1.7,47.9-1.8c20.8-0.1,40.6,0.6,59.3,1.9c22.1,1.6,42.6,4,61.3,6.9c7,1.1,13.7,2.2,20.2,3.4v-56.3
						c-7.5-1.6-16.1-3.2-25.8-4.7c2.4,16,4.5,35.3,5.7,57.6c1.9,36.3,1.3,80.7-4.8,131.8c-4,33.2-10.3,69.1-19.8,107.6
						c-8,32.3-18.2,66.2-31.1,101.8c-10.8,29.7-23.5,60.4-38.4,92.2c-4.6,9.7-9.3,19.5-14.3,29.3c-5.1,10.2-10.5,20.5-16.1,30.8
						c-8.2,15.2-17,30.6-26.2,46.2c-4.1,6.9-8.3,13.8-12.6,20.7c-10.4,16.7-21.3,33.6-33,50.7c23.7-22.8,45.3-45.9,65-69
						c2.7-3.2,5.4-6.3,8-9.5c14.8-17.8,28.4-35.7,41-53.5c4.8-6.8,9.4-13.5,13.9-20.3c6.6-9.9,12.8-19.8,18.8-29.7
						c17.5-29,32.3-57.6,44.9-85.6c9.6-21.4,17.9-42.5,25-63v-36.1c-14.5-1.8-29.5-3.5-44.7-5.2c-18.6-2-37.7-3.8-57.3-5.5
						c-17.7-1.5-35.8-2.9-54.3-4.1c-15.1-1-30.4-1.8-45.9-2.5c-23.2-1.1-46.8-1.8-70.7-2.2c-18.5-0.3-37.2-0.3-56.1-0.1
						c-19.4,0.2-38.8,0.7-58.4,1.5c-16,0.6-32.2,1.5-48.3,2.6c-17.2,1.1-34.5,2.5-51.8,4.2c-14.9,1.4-29.8,3.1-44.6,4.9
						c-13.9,1.7-27.7,3.7-41.5,5.8c-17.7,2.7-35.4,5.8-53,9.2c-16.2,3.1-32.4,6.6-48.4,10.3c-18,4.2-35.8,8.8-53.5,13.8
						c-21.2,6-42.1,12.6-62.7,19.9c-14.1,5-28.1,10.2-41.9,15.8c-16.7,6.7-33.1,14-49.3,21.7c-4.3,2.1-8.6,4.1-12.9,6.3
						c-1.8,0.9-3.7,1.8-5.5,2.7c-46.7,23.7-90.9,51.6-131.6,84.5c-1.8,1.5-3.6,2.9-5.4,4.4v8.3c24.3-18,48.3-35.3,71.9-52
						c6.6-4.7,13.2-9.3,19.8-13.9c15.3-10.7,30.4-21.1,45.3-31.3c77.7-53,150.5-100,215.4-144.1c39.4-26.8,76-52.5,109-77.9
						c20.5-15.8,39.6-31.4,57.2-47.1c5.7-5.1,11.3-10.2,16.7-15.4c2-1.9,4-3.8,5.9-5.8c49.4-48.7,85.5-107,114.2-168.9h0.5
						c-27.3,59-61.2,114.7-106.9,162c-4.5,4.6-9,9.2-13.7,13.6c-8.3,7.9-16.9,15.7-25.9,23.5c-13.2,11.4-27.2,22.8-41.9,34.3
						c-36.5,28.4-77.4,57.2-121.9,87.3c-61.7,41.7-130.2,86-203.1,135.7c-8.6,5.9-17.3,11.8-26,17.8c-15.9,10.9-31.9,22.1-48.1,33.6
						c-22.5,15.9-45.3,32.4-68.3,49.5v22.3c21.8-24.4,44.5-48.3,68.3-71.8c1.2-1.2,2.4-2.3,3.6-3.5c0.3-0.3,0.6-0.6,0.9-0.9
						c0,0,6.6-4.7,18.9-13c6.6-4.5,14.9-9.9,24.8-16.2c11.1-7.1,24.1-15.2,38.9-24.1c21.4-12.9,46.4-27.3,74.5-42.4
						c14.2-7.7,29.2-15.5,45-23.4c22.5-11.3,46.3-22.7,71.5-34c17.6-7.9,35.9-15.7,54.6-23.3c15.8-6.4,31.9-12.6,48.4-18.7
						c15.9-5.8,32.1-11.4,48.5-16.8c12.3-4,24.7-7.8,37.2-11.5c13.4-3.9,26.8-7.6,40.5-11.1c15.7-4,31.5-7.8,47.4-11.1
						c13.8-2.9,27.7-5.6,41.7-8c19.8-3.4,39.7-6.2,59.8-8.3c17.1-1.8,34.2-3.2,51.3-4c21.6-1,43.3-1.2,64.9-0.5c1.3,0,2.7,0.1,4,0.1
						c16.4,0.6,32.3,1.3,47.5,2c20.3,1,39.5,2.1,57.8,3.3c22.4,1.5,43.4,3.1,63,4.9c8.6,0.8,16.9,1.6,24.9,2.4"/>
				</g>
			</g>
		</g>
	</g>
</g>
</svg>
