<?xml version="1.0" encoding="iso-8859-1"?>
<!-- Generator: Adobe Illustrator 19.0.0, SVG Export Plug-In . SVG Version: 6.00 Build 0)  -->
<svg version="1.1" id="Layer_1" xmlns="http://www.w3.org/2000/svg" xmlns:xlink="http://www.w3.org/1999/xlink" x="0px" y="0px"
	 viewBox="0 0 297 297" style="enable-background:new 0 0 297 297;" xml:space="preserve">
<g>
	<g>
		<g>
			<path d="M13.01,61.098v6.044c0,4.208,3.423,7.631,7.631,7.631h28.424V53.467H20.64C16.432,53.467,13.01,56.89,13.01,61.098z"/>
			<path d="M154.069,114.415c9.704,0,17.599-7.895,17.599-17.599c0-9.704-7.895-17.598-17.599-17.598
				c-9.704,0-17.599,7.894-17.599,17.598C136.47,106.52,144.365,114.415,154.069,114.415z"/>
			<path d="M137.089,70.958V42.377H70.047c-4.208,0-7.631,3.423-7.631,7.631v28.224c0,4.208,3.423,7.631,7.631,7.631h55.08
				C127.457,79.726,131.683,74.52,137.089,70.958z"/>
			<path d="M177.215,117.333c-4.364,4.918-10.263,8.444-16.942,9.808l16.174,52.691H131.69l16.175-52.691
				c-6.679-1.365-12.577-4.89-16.942-9.808L79.558,284.661c-1.546,5.035,1.283,10.371,6.318,11.916
				c0.932,0.286,1.875,0.423,2.802,0.423c4.079,0,7.855-2.639,9.114-6.741l28.043-91.352h56.468l28.042,91.352
				c1.259,4.104,5.035,6.741,9.114,6.741c0.927,0,1.869-0.137,2.802-0.423c5.035-1.545,7.864-6.881,6.318-11.916L177.215,117.333z"
				/>
			<path d="M150.44,38.397v27.689c1.191-0.14,2.4-0.22,3.629-0.22c17.067,0,30.943,14.54,30.943,31.606h65.422V30.767h-92.363
				C153.863,30.767,150.44,34.19,150.44,38.397z"/>
			<path d="M274.453,0c-5.267,0-9.537,4.27-9.537,9.537v109.165c0,5.267,4.27,9.537,9.537,9.537c5.267,0,9.537-4.27,9.537-9.537
				V9.537C283.99,4.27,279.72,0,274.453,0z"/>
		</g>
	</g>
</g>
<g>
</g>
<g>
</g>
<g>
</g>
<g>
</g>
<g>
</g>
<g>
</g>
<g>
</g>
<g>
</g>
<g>
</g>
<g>
</g>
<g>
</g>
<g>
</g>
<g>
</g>
<g>
</g>
<g>
</g>
</svg>
